<mxfile host="drawio-plugin" modified="2022-03-28T17:52:20.321Z" agent="5.0 (Macintosh; Intel Mac OS X 12_2_1) AppleWebKit/537.36 (KHTML, like Gecko) Chrome/89.0.4389.114 Safari/537.36" etag="49SqkIdSdLYorQD4Dw5C" version="15.5.4" type="embed"><diagram id="prtHgNgQTEPvFCAcTncT" name="Page-1"><mxGraphModel dx="849" dy="990" grid="1" gridSize="10" guides="1" tooltips="1" connect="1" arrows="1" fold="1" page="1" pageScale="1" pageWidth="827" pageHeight="1169" math="0" shadow="0"><root><mxCell id="0"/><mxCell id="1" parent="0"/><mxCell id="JueiXMyOsdPKKaQyJxm5-7" value="" style="whiteSpace=wrap;html=1;fillColor=#444365;strokeColor=#444365;" parent="1" vertex="1"><mxGeometry x="40" y="200" width="480" height="485" as="geometry"/></mxCell><mxCell id="4CITVCLZi9hp-nYslMRe-1" value="&lt;font color=&quot;#ffffff&quot;&gt;Domain Layer&lt;/font&gt;" style="whiteSpace=wrap;html=1;fillColor=#D56A4E;strokeColor=#444365;" parent="1" vertex="1"><mxGeometry x="160" y="330" width="240" height="40" as="geometry"/></mxCell><mxCell id="4CITVCLZi9hp-nYslMRe-2" value="&lt;font color=&quot;#ffffff&quot;&gt;Repository&lt;/font&gt;" style="whiteSpace=wrap;html=1;fillColor=#D56A4E;strokeColor=#D56A4E;" parent="1" vertex="1"><mxGeometry x="160" y="530" width="240" height="40" as="geometry"/></mxCell><mxCell id="4CITVCLZi9hp-nYslMRe-3" value="" style="endArrow=classic;html=1;entryX=0.553;entryY=0.985;entryDx=0;entryDy=0;exitX=0.553;exitY=0;exitDx=0;exitDy=0;entryPerimeter=0;exitPerimeter=0;" parent="1" source="4CITVCLZi9hp-nYslMRe-2" target="4CITVCLZi9hp-nYslMRe-1" edge="1"><mxGeometry width="50" height="50" relative="1" as="geometry"><mxPoint x="300" y="480" as="sourcePoint"/><mxPoint x="350" y="430" as="targetPoint"/></mxGeometry></mxCell><mxCell id="4CITVCLZi9hp-nYslMRe-4" value="" style="endArrow=classic;html=1;exitX=0.45;exitY=1.018;exitDx=0;exitDy=0;entryX=0.451;entryY=-0.005;entryDx=0;entryDy=0;entryPerimeter=0;exitPerimeter=0;" parent="1" source="4CITVCLZi9hp-nYslMRe-1" target="4CITVCLZi9hp-nYslMRe-2" edge="1"><mxGeometry width="50" height="50" relative="1" as="geometry"><mxPoint x="340" y="480" as="sourcePoint"/><mxPoint x="390" y="430" as="targetPoint"/></mxGeometry></mxCell><mxCell id="4CITVCLZi9hp-nYslMRe-10" value="" style="endArrow=none;html=1;" parent="1" edge="1"><mxGeometry width="50" height="50" relative="1" as="geometry"><mxPoint x="300" y="450" as="sourcePoint"/><mxPoint x="340" y="450" as="targetPoint"/></mxGeometry></mxCell><mxCell id="4CITVCLZi9hp-nYslMRe-13" value="" style="group;fillColor=none;" parent="1" vertex="1" connectable="0"><mxGeometry x="350" y="410" width="140" height="80" as="geometry"/></mxCell><mxCell id="4CITVCLZi9hp-nYslMRe-7" value="" style="whiteSpace=wrap;html=1;fillColor=#D56A4E;strokeColor=#444365;" parent="4CITVCLZi9hp-nYslMRe-13" vertex="1"><mxGeometry x="20" width="120" height="60" as="geometry"/></mxCell><mxCell id="4CITVCLZi9hp-nYslMRe-8" value="" style="whiteSpace=wrap;html=1;fillColor=#D56A4E;strokeColor=#444365;" parent="4CITVCLZi9hp-nYslMRe-13" vertex="1"><mxGeometry x="10" y="10" width="120" height="60" as="geometry"/></mxCell><mxCell id="4CITVCLZi9hp-nYslMRe-9" value="&lt;font color=&quot;#ffffff&quot;&gt;Domain Models (Entities)&lt;/font&gt;" style="whiteSpace=wrap;html=1;fillColor=#D56A4E;strokeColor=#444365;" parent="4CITVCLZi9hp-nYslMRe-13" vertex="1"><mxGeometry y="20" width="120" height="60" as="geometry"/></mxCell><mxCell id="4CITVCLZi9hp-nYslMRe-17" value="&lt;font color=&quot;#ffffff&quot;&gt;Infrastructure&amp;nbsp;Layer&lt;/font&gt;" style="whiteSpace=wrap;html=1;verticalAlign=middle;horizontal=0;fillColor=#D56A4E;strokeColor=#444365;" parent="1" vertex="1"><mxGeometry x="80" y="250" width="40" height="320" as="geometry"/></mxCell><mxCell id="4CITVCLZi9hp-nYslMRe-18" value="&lt;font color=&quot;#ffffff&quot;&gt;Application Layer&lt;/font&gt;" style="whiteSpace=wrap;html=1;strokeColor=#444365;fillColor=#D56A4E;" parent="1" vertex="1"><mxGeometry x="160" y="250" width="240" height="40" as="geometry"/></mxCell><mxCell id="4CITVCLZi9hp-nYslMRe-19" value="" style="endArrow=classic;html=1;exitX=0.452;exitY=0.982;exitDx=0;exitDy=0;exitPerimeter=0;entryX=0.45;entryY=-0.017;entryDx=0;entryDy=0;entryPerimeter=0;" parent="1" source="4CITVCLZi9hp-nYslMRe-18" target="4CITVCLZi9hp-nYslMRe-1" edge="1"><mxGeometry width="50" height="50" relative="1" as="geometry"><mxPoint x="340" y="400" as="sourcePoint"/><mxPoint x="390" y="350" as="targetPoint"/></mxGeometry></mxCell><mxCell id="4CITVCLZi9hp-nYslMRe-20" value="" style="endArrow=classic;html=1;exitX=0.549;exitY=-0.014;exitDx=0;exitDy=0;exitPerimeter=0;entryX=0.55;entryY=0.996;entryDx=0;entryDy=0;entryPerimeter=0;" parent="1" source="4CITVCLZi9hp-nYslMRe-1" target="4CITVCLZi9hp-nYslMRe-18" edge="1"><mxGeometry width="50" height="50" relative="1" as="geometry"><mxPoint x="340" y="400" as="sourcePoint"/><mxPoint x="390" y="350" as="targetPoint"/></mxGeometry></mxCell><mxCell id="4CITVCLZi9hp-nYslMRe-23" value="" style="endArrow=none;dashed=1;html=1;exitX=1.038;exitY=0.061;exitDx=0;exitDy=0;exitPerimeter=0;" parent="1" source="4CITVCLZi9hp-nYslMRe-17" edge="1"><mxGeometry width="50" height="50" relative="1" as="geometry"><mxPoint x="120" y="320" as="sourcePoint"/><mxPoint x="160" y="270" as="targetPoint"/></mxGeometry></mxCell><mxCell id="4CITVCLZi9hp-nYslMRe-24" value="" style="endArrow=none;dashed=1;html=1;exitX=1.038;exitY=0.061;exitDx=0;exitDy=0;exitPerimeter=0;" parent="1" edge="1"><mxGeometry width="50" height="50" relative="1" as="geometry"><mxPoint x="121.51999999999998" y="349.76" as="sourcePoint"/><mxPoint x="160" y="350.24" as="targetPoint"/></mxGeometry></mxCell><mxCell id="4CITVCLZi9hp-nYslMRe-25" value="" style="endArrow=none;dashed=1;html=1;exitX=1.038;exitY=0.061;exitDx=0;exitDy=0;exitPerimeter=0;" parent="1" edge="1"><mxGeometry width="50" height="50" relative="1" as="geometry"><mxPoint x="121.51999999999998" y="549.76" as="sourcePoint"/><mxPoint x="160" y="550.24" as="targetPoint"/></mxGeometry></mxCell><mxCell id="4CITVCLZi9hp-nYslMRe-27" value="&lt;font color=&quot;#ffffff&quot;&gt;Database Layer&lt;/font&gt;" style="shape=datastore;whiteSpace=wrap;html=1;strokeColor=#444365;fillColor=#D56A4E;" parent="1" vertex="1"><mxGeometry x="160" y="600" width="240" height="60" as="geometry"/></mxCell><mxCell id="4CITVCLZi9hp-nYslMRe-28" value="" style="endArrow=classic;html=1;entryX=0.549;entryY=1.008;entryDx=0;entryDy=0;entryPerimeter=0;exitX=0.549;exitY=-0.013;exitDx=0;exitDy=0;exitPerimeter=0;" parent="1" source="4CITVCLZi9hp-nYslMRe-27" target="4CITVCLZi9hp-nYslMRe-2" edge="1"><mxGeometry width="50" height="50" relative="1" as="geometry"><mxPoint x="270" y="598" as="sourcePoint"/><mxPoint x="270" y="580" as="targetPoint"/></mxGeometry></mxCell><mxCell id="4CITVCLZi9hp-nYslMRe-29" value="" style="endArrow=classic;html=1;exitX=0.45;exitY=1;exitDx=0;exitDy=0;exitPerimeter=0;entryX=0.45;entryY=0;entryDx=0;entryDy=0;entryPerimeter=0;" parent="1" source="4CITVCLZi9hp-nYslMRe-2" target="4CITVCLZi9hp-nYslMRe-27" edge="1"><mxGeometry width="50" height="50" relative="1" as="geometry"><mxPoint x="300" y="600" as="sourcePoint"/><mxPoint x="350" y="550" as="targetPoint"/></mxGeometry></mxCell><mxCell id="4CITVCLZi9hp-nYslMRe-31" value="&lt;font color=&quot;#ffffff&quot;&gt;Presentation Layer&lt;/font&gt;" style="whiteSpace=wrap;html=1;fillColor=#D56A4E;strokeColor=#444365;" parent="1" vertex="1"><mxGeometry x="40" y="40" width="480" height="60" as="geometry"/></mxCell><mxCell id="4CITVCLZi9hp-nYslMRe-34" value="" style="endArrow=classic;html=1;exitX=0.479;exitY=1.008;exitDx=0;exitDy=0;exitPerimeter=0;entryX=0.457;entryY=-0.017;entryDx=0;entryDy=0;entryPerimeter=0;" parent="1" source="4CITVCLZi9hp-nYslMRe-31" target="4CITVCLZi9hp-nYslMRe-18" edge="1"><mxGeometry width="50" height="50" relative="1" as="geometry"><mxPoint x="360" y="200" as="sourcePoint"/><mxPoint x="410" y="150" as="targetPoint"/></mxGeometry></mxCell><mxCell id="4CITVCLZi9hp-nYslMRe-33" value="" style="aspect=fixed;html=1;points=[];align=center;image;fontSize=12;image=img/lib/azure2/app_services/API_Management_Services.svg;" parent="1" vertex="1"><mxGeometry x="252.92" y="120" width="54.16" height="50" as="geometry"/></mxCell><mxCell id="JueiXMyOsdPKKaQyJxm5-1" value="" style="endArrow=classic;html=1;exitX=0.542;exitY=-0.011;exitDx=0;exitDy=0;exitPerimeter=0;entryX=0.521;entryY=1.002;entryDx=0;entryDy=0;entryPerimeter=0;" parent="1" source="4CITVCLZi9hp-nYslMRe-18" target="4CITVCLZi9hp-nYslMRe-31" edge="1"><mxGeometry width="50" height="50" relative="1" as="geometry"><mxPoint x="320" y="160" as="sourcePoint"/><mxPoint x="370" y="110" as="targetPoint"/></mxGeometry></mxCell><mxCell id="JueiXMyOsdPKKaQyJxm5-8" value="&lt;h1&gt;Server (Tomcat)&lt;/h1&gt;" style="text;html=1;strokeColor=none;fillColor=none;spacing=5;spacingTop=-20;whiteSpace=wrap;overflow=hidden;fontColor=#FFFFFF;" parent="1" vertex="1"><mxGeometry x="40" y="200" width="195" height="40" as="geometry"/></mxCell><mxCell id="2" value="RestAPI" style="shape=callout;whiteSpace=wrap;html=1;perimeter=calloutPerimeter;size=20;position=0.42;position2=1;base=20;" parent="1" vertex="1"><mxGeometry x="130" y="120" width="120" height="40" as="geometry"/></mxCell></root></mxGraphModel></diagram></mxfile>